# ProBuilder 5.2.2
# https://unity3d.com/unity/features/worldbuilding/probuilder
# 2025/5/11 14:47:56

mtllib ./Environment.mtl
o Environment

g Environment
v -0.4454446 0.2115352 -0.5369511
v -0.2227221 0.2953968 -0.5369511
v -0.2227221 0.2953968 0.5369511
v -0.4454446 0.2115352 0.5369511
v 0 0.329559 -0.5369511
v 0 0.329559 0
v 0 0.329559 0.5369511
v -0.8908892 -0.07955628 0
v -0.8908892 -0.07955628 -0.5369511
v -0.6681669 0.0956651 -0.5369511
v -0.6681669 0.0956651 0.5369511
v -0.8908892 -0.07955628 0.5369511
v 0.4454446 0.2115352 -0.5369511
v 0.6681669 0.0956651 -0.5369511
v 0.6681669 0.0956651 0.5369511
v 0.4454446 0.2115352 0.5369511
v 0.8908892 -0.07955628 -0.5369511
v 0.8908892 -0.07955628 0
v 0.8908892 -0.07955628 0.5369511
v 0.2227223 0.2953968 -0.5369511
v 0.2227223 0.2953968 0.5369511

vt 0.7499998 0.0001353338
vt 0.6249999 0.0001353338
vt 0.6249999 0.9994189
vt 0.7499999 0.9994189
vt 0.4999997 0.0001352742
vt 0.4999999 0.4958358
vt 0.4999999 0.9994189
vt 1 0.4958358
vt 0.9999999 0.0001353338
vt 0.875 0.0001353338
vt 0.875 0.9994189
vt 1 0.9994189
vt 0.25 0.0001352146
vt 0.125 0.0001352742
vt 0.1249999 0.9994187
vt 0.25 0.999419
vt 8.940697E-08 0.0001352742
vt 0 0.4958356
vt 0 0.9994189
vt 0.3749999 0.0001352742
vt 0.3749999 0.9994189

vn 0.4076796 -0.9131251 0
vn 0.2533626 -0.9673714 0
vn 8.291487E-08 -1 0
vn 0.6183128 -0.7859321 0
vn 0.542284 -0.8401952 0
vn -0.4076797 -0.913125 0
vn -0.542284 -0.8401952 0
vn -0.6183128 -0.7859321 0
vn -0.2533627 -0.9673713 0

usemtl VideoMat
f 6/6/3 7/7/3 3/3/2
f 2/2/2 6/6/3 3/3/2
f 2/2/2 5/5/3 6/6/3
f 12/12/4 8/8/4 11/11/5
f 8/8/4 10/10/5 11/11/5
f 8/8/4 9/9/4 10/10/5
f 18/18/8 19/19/8 15/15/7
f 14/14/7 18/18/8 15/15/7
f 14/14/7 17/17/8 18/18/8
f 7/7/3 6/6/3 21/21/9
f 6/6/3 20/20/9 21/21/9
f 6/6/3 5/5/3 20/20/9
f 2/2/2 3/3/2 4/4/1
f 4/4/1 1/1/1 2/2/2
f 1/1/1 4/4/1 11/11/5
f 11/11/5 10/10/5 1/1/1
f 14/14/7 15/15/7 16/16/6
f 16/16/6 13/13/6 14/14/7
f 13/13/6 16/16/6 21/21/9
f 21/21/9 20/20/9 13/13/6

